<svg width="589" height="478" viewBox="0 0 589 478" fill="none" xmlns="http://www.w3.org/2000/svg">
<g clip-path="url(#clip0_115_14)">
<path d="M531.065 248.759C531.142 307.906 506.605 364.778 462.611 407.419C459.959 410.006 457.235 412.531 454.44 414.994C450.181 418.769 445.779 422.397 441.234 425.879C398.716 458.517 345.636 476.858 290.559 477.942C288.724 477.981 286.882 478 285.033 478C241.107 478 185.859 456.14 135.722 425.879C131.574 423.375 127.463 420.814 123.389 418.194C121.484 416.981 119.589 415.751 117.703 414.504C98.3661 401.782 80.0112 387.81 62.774 372.693C51.4882 362.825 40.9051 352.281 31.092 341.129C-7.43194 296.854 -15.9289 256.96 38.9935 248.759C45.4961 247.791 51.8071 246.757 57.9265 245.655C66.7905 244.068 75.2737 242.354 83.376 240.513C94.2898 238.042 104.543 235.362 114.137 232.473C117.364 231.506 120.517 230.518 123.597 229.512C169.122 214.614 199.592 195.186 220.332 174.107C223.85 170.538 227.093 166.927 230.062 163.273C234.604 157.711 238.729 151.865 242.409 145.775C247.488 137.313 251.755 128.45 255.158 119.288L255.345 118.785C271.848 74.4326 266.827 33.2932 285.033 19.5241C362.856 -39.3395 459.744 44.4878 505.221 143.342C507.513 148.323 509.669 153.335 511.689 158.376C512.596 160.628 513.471 162.884 514.314 165.144C516.53 171.035 518.54 176.941 520.345 182.862C521.038 185.121 521.698 187.377 522.326 189.631C522.998 192.063 523.642 194.489 524.237 196.915C528.662 214.678 531.065 232.196 531.065 248.759Z" fill="#F2F2F2"/>
<path d="M290.559 477.942C288.724 477.981 286.882 478 285.033 478C241.107 478 185.859 456.14 135.722 425.879C131.574 423.375 127.463 420.814 123.389 418.194L126.962 397.934L235.138 384.552L289.43 423.233L290.559 477.942Z" fill="#2F2E41"/>
<path d="M295.767 116.172H280.351C279.874 116.172 279.416 116.349 279.079 116.664C278.741 116.978 278.551 117.405 278.551 117.85V132.219C278.551 132.439 278.598 132.656 278.689 132.859C278.779 133.062 278.912 133.247 279.079 133.402C279.247 133.557 279.445 133.68 279.663 133.764C279.881 133.848 280.115 133.89 280.351 133.89H295.767C296.243 133.89 296.7 133.714 297.038 133.401C297.375 133.088 297.565 132.663 297.567 132.219V117.85C297.566 117.405 297.376 116.979 297.038 116.665C296.701 116.35 296.244 116.173 295.767 116.172Z" fill="white"/>
<path d="M295.767 140.658H280.351C279.874 140.658 279.416 140.835 279.079 141.15C278.741 141.464 278.551 141.891 278.551 142.336V156.705C278.551 156.925 278.598 157.143 278.689 157.346C278.779 157.549 278.912 157.733 279.079 157.888C279.247 158.044 279.445 158.167 279.663 158.25C279.881 158.334 280.115 158.377 280.351 158.376H295.767C296.243 158.376 296.7 158.2 297.038 157.887C297.375 157.574 297.565 157.149 297.567 156.705V142.336C297.566 141.891 297.376 141.465 297.038 141.151C296.701 140.837 296.244 140.66 295.767 140.658Z" fill="#E6E6E6"/>
<path d="M295.767 165.144H280.351C279.874 165.145 279.416 165.321 279.079 165.636C278.741 165.951 278.551 166.377 278.551 166.822V181.185C278.551 181.405 278.597 181.623 278.687 181.827C278.777 182.031 278.91 182.216 279.077 182.372C279.245 182.528 279.443 182.651 279.662 182.735C279.88 182.82 280.115 182.863 280.351 182.862H295.767C296.244 182.862 296.702 182.685 297.039 182.371C297.377 182.056 297.567 181.63 297.567 181.185V166.822C297.566 166.378 297.376 165.952 297.038 165.637C296.701 165.323 296.244 165.146 295.767 165.144Z" fill="#E6E6E6"/>
<path d="M297.539 191.011C297.463 190.625 297.243 190.276 296.92 190.024C296.596 189.772 296.188 189.633 295.767 189.631H280.351C279.874 189.631 279.416 189.808 279.079 190.122C278.741 190.437 278.551 190.863 278.551 191.308V205.671C278.551 205.891 278.597 206.11 278.687 206.313C278.777 206.517 278.91 206.702 279.077 206.858C279.245 207.014 279.443 207.137 279.662 207.222C279.881 207.306 280.115 207.349 280.351 207.348H295.767C296.244 207.348 296.702 207.171 297.04 206.857C297.377 206.542 297.567 206.116 297.567 205.671V191.308C297.569 191.209 297.559 191.109 297.539 191.011Z" fill="#E6E6E6"/>
<path d="M296.466 214.246C296.244 214.16 296.007 214.117 295.767 214.117H280.351C280.115 214.116 279.881 214.16 279.662 214.244C279.443 214.328 279.245 214.451 279.077 214.607C278.91 214.763 278.777 214.948 278.687 215.152C278.597 215.356 278.551 215.574 278.551 215.794V230.157C278.55 230.378 278.596 230.596 278.686 230.8C278.776 231.004 278.909 231.19 279.076 231.346C279.243 231.502 279.442 231.625 279.661 231.709C279.88 231.793 280.115 231.836 280.351 231.835H295.767C296.244 231.834 296.702 231.658 297.04 231.343C297.377 231.029 297.567 230.602 297.567 230.157V215.794C297.566 215.464 297.462 215.142 297.266 214.866C297.07 214.591 296.792 214.375 296.466 214.246Z" fill="#E6E6E6"/>
<path d="M328.148 116.172H312.733C312.255 116.172 311.798 116.349 311.46 116.664C311.122 116.978 310.933 117.405 310.932 117.85V132.219C310.933 132.439 310.98 132.656 311.07 132.859C311.161 133.062 311.294 133.247 311.461 133.402C311.628 133.557 311.826 133.68 312.045 133.764C312.263 133.848 312.497 133.89 312.733 133.89H328.148C328.624 133.89 329.081 133.714 329.419 133.401C329.756 133.088 329.947 132.663 329.949 132.219V117.85C329.947 117.405 329.757 116.979 329.42 116.665C329.082 116.35 328.625 116.173 328.148 116.172Z" fill="#E6E6E6"/>
<path d="M328.148 140.658H312.733C312.255 140.658 311.798 140.835 311.46 141.15C311.122 141.464 310.933 141.891 310.932 142.336V156.705C310.933 156.925 310.98 157.143 311.07 157.346C311.161 157.549 311.294 157.733 311.461 157.888C311.628 158.044 311.826 158.167 312.045 158.25C312.263 158.334 312.497 158.377 312.733 158.376H328.148C328.624 158.376 329.081 158.2 329.419 157.887C329.756 157.574 329.947 157.149 329.949 156.705V142.336C329.947 141.891 329.757 141.465 329.42 141.151C329.082 140.837 328.625 140.66 328.148 140.658Z" fill="#6C63FF"/>
<path d="M328.148 165.144H312.733C312.255 165.145 311.798 165.321 311.46 165.636C311.122 165.951 310.933 166.377 310.932 166.822V181.185C310.932 181.405 310.978 181.623 311.069 181.827C311.159 182.031 311.291 182.216 311.459 182.372C311.626 182.528 311.825 182.651 312.043 182.735C312.262 182.82 312.496 182.863 312.733 182.862H328.148C328.625 182.862 329.083 182.685 329.421 182.371C329.759 182.056 329.948 181.63 329.949 181.185V166.822C329.947 166.378 329.757 165.952 329.42 165.637C329.082 165.323 328.625 165.146 328.148 165.144Z" fill="#6C63FF"/>
<path d="M328.148 189.631H312.733C312.355 189.631 311.988 189.742 311.682 189.948C311.376 190.154 311.148 190.445 311.029 190.779C310.965 190.949 310.933 191.128 310.932 191.308V205.671C310.932 205.891 310.978 206.11 311.069 206.313C311.159 206.517 311.291 206.702 311.459 206.858C311.626 207.014 311.825 207.137 312.043 207.222C312.262 207.306 312.496 207.349 312.733 207.348H328.148C328.625 207.348 329.083 207.171 329.421 206.857C329.759 206.542 329.948 206.116 329.949 205.671V191.308C329.947 190.864 329.757 190.438 329.42 190.123C329.082 189.809 328.625 189.632 328.148 189.631Z" fill="#6C63FF"/>
<path d="M328.148 214.117H312.733C312.496 214.116 312.262 214.16 312.043 214.244C311.825 214.328 311.626 214.451 311.459 214.607C311.291 214.763 311.159 214.948 311.069 215.152C310.978 215.356 310.932 215.574 310.932 215.794V230.157C310.932 230.378 310.978 230.596 311.069 230.8C311.159 231.003 311.291 231.188 311.459 231.344C311.626 231.5 311.825 231.624 312.043 231.708C312.262 231.792 312.496 231.835 312.733 231.835H328.148C328.625 231.835 329.083 231.658 329.421 231.343C329.759 231.029 329.948 230.602 329.949 230.157V215.794C329.948 215.35 329.759 214.923 329.421 214.608C329.083 214.294 328.625 214.117 328.148 214.117Z" fill="#E6E6E6"/>
<path d="M360.529 116.172H345.114C344.637 116.172 344.179 116.349 343.842 116.664C343.504 116.978 343.314 117.405 343.314 117.85V132.219C343.314 132.439 343.361 132.656 343.452 132.859C343.542 133.062 343.675 133.247 343.842 133.402C344.009 133.557 344.208 133.68 344.426 133.764C344.644 133.848 344.878 133.89 345.114 133.89H360.529C361.006 133.89 361.463 133.714 361.8 133.401C362.138 133.088 362.328 132.663 362.33 132.219V117.85C362.329 117.405 362.138 116.979 361.801 116.665C361.464 116.35 361.007 116.173 360.529 116.172Z" fill="#6C63FF"/>
<path d="M360.529 140.658H345.114C344.637 140.658 344.179 140.835 343.841 141.15C343.504 141.464 343.314 141.891 343.314 142.336V156.705C343.314 156.925 343.361 157.143 343.452 157.346C343.542 157.549 343.675 157.733 343.842 157.888C344.009 158.044 344.208 158.167 344.426 158.25C344.644 158.334 344.878 158.377 345.114 158.376H360.529C361.006 158.376 361.463 158.2 361.8 157.887C362.138 157.574 362.328 157.149 362.33 156.705V142.336C362.329 141.891 362.138 141.465 361.801 141.151C361.464 140.837 361.007 140.66 360.529 140.658Z" fill="#6C63FF"/>
<path d="M360.529 165.144H345.114C344.637 165.145 344.179 165.321 343.841 165.636C343.504 165.951 343.314 166.377 343.314 166.822V181.185C343.313 181.405 343.36 181.623 343.45 181.827C343.54 182.031 343.673 182.216 343.84 182.372C344.007 182.528 344.206 182.651 344.425 182.735C344.643 182.82 344.878 182.863 345.114 182.862H360.529C361.007 182.862 361.465 182.685 361.802 182.371C362.14 182.056 362.33 181.63 362.33 181.185V166.822C362.329 166.378 362.138 165.952 361.801 165.637C361.464 165.323 361.007 165.146 360.529 165.144Z" fill="#E6E6E6"/>
<path d="M360.529 189.631H345.114C344.637 189.631 344.179 189.808 343.842 190.122C343.504 190.437 343.314 190.863 343.314 191.308V205.671C343.313 205.891 343.36 206.11 343.45 206.313C343.54 206.517 343.673 206.702 343.84 206.858C344.007 207.014 344.206 207.137 344.425 207.222C344.643 207.306 344.878 207.349 345.114 207.348H360.529C361.007 207.348 361.465 207.171 361.802 206.857C362.14 206.542 362.33 206.116 362.33 205.671V191.308C362.329 190.864 362.138 190.438 361.801 190.123C361.464 189.809 361.007 189.632 360.529 189.631Z" fill="#6C63FF"/>
<path d="M360.529 214.117H345.114C344.878 214.116 344.643 214.16 344.425 214.244C344.206 214.328 344.007 214.451 343.84 214.607C343.673 214.763 343.54 214.948 343.45 215.152C343.36 215.356 343.313 215.574 343.314 215.794V230.157C343.313 230.378 343.36 230.596 343.45 230.8C343.54 231.003 343.673 231.188 343.84 231.344C344.007 231.5 344.206 231.624 344.425 231.708C344.643 231.792 344.878 231.835 345.114 231.835H360.529C361.007 231.835 361.465 231.658 361.802 231.343C362.14 231.029 362.33 230.602 362.33 230.157V215.794C362.33 215.35 362.14 214.923 361.802 214.608C361.465 214.294 361.007 214.117 360.529 214.117Z" fill="#6C63FF"/>
<path d="M392.911 116.172H377.496C377.018 116.172 376.56 116.349 376.223 116.664C375.885 116.978 375.695 117.405 375.695 117.85V132.219C375.695 132.439 375.742 132.656 375.833 132.859C375.924 133.063 376.056 133.247 376.224 133.402C376.391 133.557 376.589 133.68 376.808 133.764C377.026 133.848 377.26 133.89 377.496 133.89H392.911C393.387 133.89 393.844 133.714 394.182 133.401C394.519 133.088 394.71 132.663 394.711 132.219V117.85C394.71 117.405 394.52 116.979 394.182 116.665C393.845 116.35 393.388 116.173 392.911 116.172Z" fill="#6C63FF"/>
<path d="M392.911 140.658H377.496C377.018 140.658 376.56 140.835 376.223 141.15C375.885 141.464 375.695 141.891 375.695 142.336V156.705C375.695 156.925 375.742 157.143 375.833 157.346C375.924 157.549 376.056 157.733 376.224 157.888C376.391 158.044 376.589 158.167 376.808 158.25C377.026 158.334 377.26 158.377 377.496 158.376H392.911C393.387 158.376 393.844 158.2 394.182 157.887C394.519 157.574 394.71 157.149 394.711 156.705V142.336C394.71 141.891 394.52 141.465 394.183 141.151C393.845 140.837 393.388 140.66 392.911 140.658Z" fill="white"/>
<path d="M392.911 165.144H377.496C377.018 165.145 376.56 165.321 376.223 165.636C375.885 165.951 375.695 166.377 375.695 166.822V181.185C375.695 181.405 375.741 181.623 375.831 181.827C375.922 182.031 376.054 182.216 376.222 182.372C376.389 182.528 376.588 182.651 376.806 182.735C377.025 182.82 377.259 182.863 377.496 182.862H392.911C393.388 182.862 393.846 182.685 394.184 182.371C394.521 182.056 394.711 181.63 394.711 181.185V166.822C394.71 166.378 394.52 165.952 394.183 165.637C393.845 165.323 393.388 165.146 392.911 165.144Z" fill="white"/>
<path d="M392.911 189.631H377.496C377.018 189.631 376.56 189.808 376.223 190.122C375.885 190.437 375.695 190.863 375.695 191.308V205.671C375.695 205.891 375.741 206.11 375.831 206.313C375.922 206.517 376.054 206.702 376.222 206.858C376.389 207.014 376.587 207.138 376.806 207.222C377.025 207.306 377.259 207.349 377.496 207.348H392.911C393.388 207.348 393.846 207.171 394.184 206.857C394.521 206.542 394.711 206.116 394.711 205.671V191.308C394.71 190.864 394.52 190.438 394.183 190.123C393.845 189.809 393.388 189.632 392.911 189.631Z" fill="#E6E6E6"/>
<path d="M392.911 214.117H377.496C377.259 214.116 377.025 214.16 376.806 214.244C376.587 214.328 376.389 214.451 376.222 214.607C376.054 214.763 375.922 214.948 375.831 215.152C375.741 215.356 375.695 215.574 375.695 215.794V230.157C375.695 230.378 375.741 230.596 375.831 230.8C375.922 231.003 376.054 231.188 376.222 231.344C376.389 231.5 376.588 231.624 376.806 231.708C377.025 231.792 377.259 231.835 377.496 231.835H392.911C393.388 231.835 393.846 231.658 394.184 231.343C394.521 231.029 394.711 230.602 394.711 230.157V215.794C394.711 215.35 394.521 214.923 394.184 214.608C393.846 214.294 393.388 214.117 392.911 214.117Z" fill="#6C63FF"/>
<path d="M425.292 116.172H409.87C409.394 116.174 408.938 116.351 408.601 116.665C408.265 116.98 408.077 117.406 408.077 117.85V132.219C408.077 132.662 408.266 133.087 408.602 133.4C408.938 133.714 409.395 133.89 409.87 133.89H425.292C425.769 133.89 426.226 133.714 426.563 133.401C426.901 133.088 427.091 132.663 427.093 132.219V117.85C427.091 117.405 426.901 116.979 426.564 116.665C426.227 116.35 425.769 116.173 425.292 116.172Z" fill="white"/>
<path d="M425.292 140.658H409.87C409.394 140.66 408.938 140.837 408.601 141.152C408.265 141.466 408.076 141.892 408.077 142.336V156.705C408.077 157.148 408.266 157.573 408.602 157.887C408.938 158.2 409.395 158.376 409.87 158.376H425.292C425.769 158.376 426.226 158.2 426.563 157.887C426.901 157.574 427.091 157.149 427.093 156.705V142.336C427.091 141.891 426.901 141.465 426.564 141.151C426.227 140.837 425.769 140.66 425.292 140.658Z" fill="white"/>
<path d="M425.292 165.144H409.87C409.394 165.146 408.938 165.323 408.601 165.638C408.265 165.952 408.076 166.378 408.077 166.822V181.185C408.076 181.405 408.122 181.623 408.212 181.826C408.302 182.029 408.434 182.214 408.6 182.37C408.767 182.526 408.965 182.649 409.183 182.734C409.401 182.818 409.634 182.862 409.87 182.862H425.292C425.77 182.862 426.228 182.685 426.565 182.371C426.903 182.056 427.093 181.63 427.093 181.185V166.822C427.091 166.378 426.901 165.952 426.564 165.637C426.227 165.323 425.769 165.146 425.292 165.144Z" fill="white"/>
<path d="M425.292 189.631H409.87C409.394 189.632 408.938 189.81 408.601 190.124C408.265 190.439 408.077 190.864 408.077 191.308V205.671C408.076 205.891 408.122 206.109 408.212 206.312C408.302 206.516 408.434 206.7 408.6 206.856C408.767 207.012 408.965 207.136 409.183 207.22C409.401 207.305 409.634 207.348 409.87 207.348H425.292C425.77 207.348 426.228 207.171 426.565 206.857C426.903 206.542 427.093 206.116 427.093 205.671V191.308C427.091 190.864 426.901 190.438 426.564 190.123C426.227 189.809 425.769 189.632 425.292 189.631Z" fill="#6C63FF"/>
<path d="M425.292 214.117H409.87C409.634 214.117 409.401 214.161 409.183 214.245C408.965 214.33 408.767 214.453 408.6 214.609C408.434 214.765 408.302 214.95 408.212 215.153C408.122 215.357 408.076 215.575 408.077 215.794V230.157C408.076 230.377 408.122 230.595 408.212 230.798C408.302 231.002 408.434 231.187 408.6 231.342C408.767 231.498 408.965 231.622 409.183 231.706C409.401 231.791 409.634 231.834 409.87 231.835H425.292C425.77 231.834 426.228 231.658 426.565 231.343C426.903 231.029 427.093 230.602 427.093 230.157V215.794C427.093 215.35 426.903 214.923 426.565 214.608C426.228 214.294 425.77 214.117 425.292 214.117Z" fill="#E6E6E6"/>
<path d="M457.674 116.172H442.252C441.775 116.174 441.319 116.351 440.983 116.665C440.647 116.98 440.458 117.406 440.458 117.85V132.219C440.458 132.662 440.647 133.087 440.984 133.4C441.32 133.714 441.776 133.89 442.252 133.89H457.674C458.15 133.89 458.607 133.714 458.945 133.401C459.282 133.088 459.473 132.663 459.474 132.219V117.85C459.473 117.405 459.283 116.979 458.945 116.665C458.608 116.351 458.151 116.173 457.674 116.172Z" fill="white"/>
<path d="M457.674 140.658H442.252C441.775 140.66 441.319 140.837 440.983 141.152C440.647 141.466 440.458 141.892 440.458 142.336V156.705C440.458 157.148 440.647 157.573 440.984 157.887C441.32 158.2 441.776 158.376 442.252 158.376H457.674C458.15 158.376 458.607 158.2 458.945 157.887C459.282 157.574 459.473 157.149 459.474 156.705V142.336C459.473 141.891 459.283 141.465 458.945 141.151C458.608 140.837 458.151 140.66 457.674 140.658Z" fill="white"/>
<path d="M457.674 165.144H442.252C441.775 165.146 441.319 165.323 440.983 165.638C440.647 165.952 440.458 166.378 440.458 166.822V181.185C440.457 181.405 440.503 181.623 440.593 181.826C440.683 182.029 440.815 182.214 440.982 182.37C441.148 182.526 441.346 182.649 441.564 182.734C441.782 182.818 442.016 182.862 442.252 182.862H457.674C458.151 182.862 458.609 182.685 458.947 182.371C459.284 182.056 459.474 181.63 459.474 181.185V166.822C459.473 166.378 459.283 165.952 458.945 165.637C458.608 165.323 458.151 165.146 457.674 165.144Z" fill="#6C63FF"/>
<path d="M457.674 189.631H442.252C441.775 189.632 441.319 189.81 440.983 190.124C440.647 190.439 440.458 190.864 440.458 191.308V205.671C440.457 205.891 440.503 206.109 440.593 206.312C440.683 206.516 440.815 206.7 440.982 206.856C441.148 207.012 441.346 207.136 441.564 207.22C441.782 207.305 442.016 207.348 442.252 207.348H457.674C458.151 207.348 458.609 207.171 458.947 206.857C459.284 206.542 459.474 206.116 459.474 205.671V191.308C459.473 190.864 459.283 190.438 458.945 190.123C458.608 189.809 458.151 189.632 457.674 189.631Z" fill="#E6E6E6"/>
<path d="M457.674 214.117H442.252C442.016 214.117 441.782 214.161 441.564 214.245C441.346 214.33 441.148 214.453 440.982 214.609C440.815 214.765 440.683 214.95 440.593 215.153C440.503 215.357 440.457 215.575 440.458 215.794V230.157C440.457 230.377 440.503 230.595 440.593 230.798C440.683 231.002 440.815 231.187 440.982 231.342C441.148 231.498 441.346 231.622 441.564 231.706C441.782 231.791 442.016 231.834 442.252 231.835H457.674C458.151 231.834 458.609 231.658 458.947 231.343C459.284 231.029 459.474 230.602 459.474 230.157V215.794C459.474 215.35 459.284 214.923 458.947 214.608C458.609 214.294 458.151 214.117 457.674 214.117Z" fill="white"/>
<path d="M490.055 116.172H474.633C474.157 116.174 473.7 116.351 473.364 116.665C473.028 116.98 472.839 117.406 472.84 117.85V132.219C472.84 132.662 473.029 133.087 473.365 133.4C473.701 133.714 474.157 133.89 474.633 133.89H490.055C490.532 133.89 490.989 133.714 491.326 133.401C491.664 133.088 491.854 132.663 491.856 132.219V117.85C491.854 117.405 491.664 116.979 491.327 116.665C490.989 116.351 490.532 116.173 490.055 116.172Z" fill="#6C63FF"/>
<path d="M490.055 140.658H474.633C474.157 140.66 473.7 140.837 473.364 141.152C473.028 141.466 472.839 141.892 472.84 142.336V156.705C472.84 157.148 473.029 157.573 473.365 157.887C473.701 158.2 474.157 158.376 474.633 158.376H490.055C490.532 158.376 490.989 158.2 491.326 157.887C491.664 157.574 491.854 157.149 491.856 156.705V142.336C491.854 141.891 491.664 141.465 491.327 141.151C490.989 140.837 490.532 140.66 490.055 140.658Z" fill="#6C63FF"/>
<path d="M490.055 165.144H474.633C474.157 165.146 473.7 165.323 473.364 165.638C473.028 165.952 472.839 166.378 472.84 166.822V181.185C472.839 181.405 472.885 181.623 472.975 181.826C473.064 182.029 473.196 182.214 473.363 182.37C473.53 182.526 473.728 182.649 473.945 182.734C474.163 182.818 474.397 182.862 474.633 182.862H490.055C490.533 182.862 490.99 182.685 491.328 182.371C491.666 182.056 491.855 181.63 491.856 181.185V166.822C491.854 166.378 491.664 165.952 491.327 165.637C490.989 165.323 490.532 165.146 490.055 165.144Z" fill="#E6E6E6"/>
<path d="M490.055 189.631H474.633C474.157 189.632 473.7 189.81 473.364 190.124C473.028 190.439 472.839 190.864 472.84 191.308V205.671C472.839 205.891 472.885 206.109 472.975 206.312C473.064 206.516 473.196 206.7 473.363 206.856C473.53 207.012 473.728 207.136 473.945 207.22C474.163 207.305 474.397 207.348 474.633 207.348H490.055C490.533 207.348 490.99 207.171 491.328 206.857C491.666 206.542 491.855 206.116 491.856 205.671V191.308C491.854 190.864 491.664 190.438 491.327 190.123C490.989 189.809 490.532 189.632 490.055 189.631Z" fill="white"/>
<path d="M490.055 214.117H474.633C474.397 214.117 474.163 214.161 473.945 214.245C473.728 214.33 473.53 214.453 473.363 214.609C473.196 214.765 473.064 214.95 472.975 215.153C472.885 215.357 472.839 215.575 472.84 215.794V230.157C472.839 230.377 472.885 230.595 472.975 230.798C473.064 231.002 473.196 231.187 473.363 231.342C473.53 231.498 473.728 231.622 473.945 231.706C474.163 231.791 474.397 231.834 474.633 231.835H490.055C490.533 231.834 490.99 231.658 491.328 231.343C491.666 231.029 491.855 230.602 491.856 230.157V215.794C491.855 215.35 491.666 214.923 491.328 214.608C490.99 214.294 490.533 214.117 490.055 214.117Z" fill="#6C63FF"/>
<path d="M522.437 116.172H507.015C506.538 116.174 506.082 116.351 505.746 116.665C505.409 116.98 505.221 117.406 505.221 117.85V132.219C505.221 132.662 505.41 133.087 505.746 133.4C506.083 133.714 506.539 133.89 507.015 133.89H522.437C522.913 133.89 523.37 133.714 523.707 133.401C524.045 133.088 524.235 132.663 524.237 132.219V117.85C524.236 117.405 524.046 116.979 523.708 116.665C523.371 116.351 522.914 116.173 522.437 116.172Z" fill="#6C63FF"/>
<path d="M522.437 140.658H507.015C506.538 140.66 506.082 140.837 505.746 141.152C505.409 141.466 505.221 141.892 505.221 142.336V156.705C505.221 157.148 505.41 157.573 505.746 157.887C506.083 158.2 506.539 158.376 507.015 158.376H522.437C522.913 158.376 523.37 158.2 523.707 157.887C524.045 157.574 524.235 157.149 524.237 156.705V142.336C524.236 141.891 524.046 141.465 523.708 141.151C523.371 140.837 522.914 140.66 522.437 140.658Z" fill="#6C63FF"/>
<path d="M522.437 165.144H507.015C506.538 165.146 506.082 165.323 505.746 165.638C505.409 165.952 505.221 166.378 505.221 166.822V181.185C505.22 181.405 505.266 181.623 505.356 181.826C505.446 182.029 505.578 182.214 505.744 182.37C505.911 182.526 506.109 182.649 506.327 182.734C506.545 182.818 506.779 182.862 507.015 182.862H522.437C522.914 182.862 523.372 182.685 523.709 182.371C524.047 182.056 524.237 181.63 524.237 181.185V166.822C524.236 166.378 524.046 165.952 523.708 165.637C523.371 165.323 522.914 165.146 522.437 165.144Z" fill="#E6E6E6"/>
<path d="M522.437 189.631H507.015C506.538 189.632 506.082 189.81 505.746 190.124C505.41 190.439 505.221 190.864 505.221 191.308V205.671C505.22 205.891 505.266 206.109 505.356 206.312C505.446 206.516 505.578 206.7 505.744 206.856C505.911 207.012 506.109 207.136 506.327 207.22C506.545 207.305 506.779 207.348 507.015 207.348H522.437C522.914 207.348 523.372 207.171 523.709 206.857C524.047 206.542 524.237 206.116 524.237 205.671V191.308C524.236 190.864 524.046 190.438 523.708 190.123C523.371 189.809 522.914 189.632 522.437 189.631Z" fill="#6C63FF"/>
<path d="M522.437 214.117H507.015C506.779 214.117 506.545 214.161 506.327 214.245C506.109 214.33 505.911 214.453 505.744 214.609C505.578 214.765 505.446 214.95 505.356 215.153C505.266 215.357 505.22 215.575 505.221 215.794V230.157C505.22 230.377 505.266 230.595 505.356 230.798C505.446 231.002 505.578 231.187 505.744 231.342C505.911 231.498 506.109 231.622 506.327 231.706C506.545 231.791 506.779 231.834 507.015 231.835H522.437C522.914 231.834 523.372 231.658 523.709 231.343C524.047 231.029 524.237 230.602 524.237 230.157V215.794C524.237 215.35 524.047 214.923 523.709 214.608C523.372 214.294 522.914 214.117 522.437 214.117Z" fill="#6C63FF"/>
<path d="M554.818 116.172H539.396C538.92 116.174 538.463 116.351 538.127 116.665C537.791 116.98 537.602 117.406 537.602 117.85V132.219C537.603 132.662 537.791 133.087 538.128 133.4C538.464 133.714 538.92 133.89 539.396 133.89H554.818C555.294 133.89 555.751 133.714 556.089 133.401C556.426 133.088 556.617 132.663 556.619 132.219V117.85C556.617 117.405 556.427 116.979 556.09 116.665C555.752 116.351 555.295 116.173 554.818 116.172Z" fill="#E6E6E6"/>
<path d="M554.818 140.658H539.396C538.92 140.66 538.463 140.837 538.127 141.152C537.791 141.466 537.602 141.892 537.602 142.336V156.705C537.603 157.148 537.791 157.573 538.128 157.887C538.464 158.2 538.92 158.376 539.396 158.376H554.818C555.294 158.376 555.751 158.2 556.089 157.887C556.426 157.574 556.617 157.149 556.619 156.705V142.336C556.617 141.891 556.427 141.465 556.09 141.151C555.752 140.837 555.295 140.66 554.818 140.658Z" fill="#6C63FF"/>
<path d="M554.818 165.144H539.396C538.92 165.146 538.463 165.323 538.127 165.638C537.791 165.952 537.602 166.378 537.602 166.822V181.185C537.602 181.405 537.648 181.623 537.737 181.826C537.827 182.029 537.959 182.214 538.126 182.37C538.292 182.526 538.49 182.649 538.708 182.734C538.926 182.818 539.16 182.862 539.396 182.862H554.818C555.295 182.862 555.753 182.685 556.091 182.371C556.429 182.056 556.618 181.63 556.619 181.185V166.822C556.617 166.378 556.427 165.952 556.09 165.637C555.752 165.323 555.295 165.146 554.818 165.144Z" fill="#6C63FF"/>
<path d="M554.818 189.631H539.396C538.92 189.632 538.463 189.81 538.127 190.124C537.791 190.439 537.602 190.864 537.602 191.308V205.671C537.602 205.891 537.648 206.109 537.737 206.312C537.827 206.516 537.959 206.7 538.126 206.856C538.292 207.012 538.49 207.136 538.708 207.22C538.926 207.305 539.16 207.348 539.396 207.348H554.818C555.295 207.348 555.753 207.171 556.091 206.857C556.429 206.542 556.618 206.116 556.619 205.671V191.308C556.617 190.864 556.427 190.438 556.09 190.123C555.752 189.809 555.295 189.632 554.818 189.631Z" fill="#6C63FF"/>
<path d="M554.818 214.117H539.396C539.16 214.117 538.926 214.161 538.708 214.245C538.49 214.33 538.292 214.453 538.126 214.609C537.959 214.765 537.827 214.95 537.737 215.153C537.648 215.357 537.602 215.575 537.602 215.794V230.157C537.602 230.377 537.648 230.595 537.737 230.798C537.827 231.002 537.959 231.187 538.126 231.342C538.292 231.498 538.49 231.622 538.708 231.706C538.926 231.791 539.16 231.834 539.396 231.835H554.818C555.295 231.834 555.753 231.658 556.091 231.343C556.429 231.029 556.618 230.602 556.619 230.157V215.794C556.618 215.35 556.429 214.923 556.091 214.608C555.753 214.294 555.295 214.117 554.818 214.117Z" fill="#E6E6E6"/>
<path d="M587.199 116.172H571.777C571.301 116.174 570.845 116.351 570.509 116.665C570.172 116.98 569.984 117.406 569.984 117.85V132.219C569.984 132.662 570.173 133.087 570.509 133.4C570.846 133.714 571.302 133.89 571.777 133.89H587.199C587.676 133.89 588.133 133.714 588.47 133.401C588.808 133.088 588.998 132.663 589 132.219V117.85C588.999 117.405 588.808 116.979 588.471 116.665C588.134 116.351 587.677 116.173 587.199 116.172Z" fill="#E6E6E6"/>
<path d="M587.199 140.658H571.777C571.301 140.66 570.845 140.837 570.509 141.152C570.172 141.466 569.984 141.892 569.984 142.336V156.705C569.984 157.148 570.173 157.573 570.509 157.887C570.846 158.2 571.302 158.376 571.777 158.376H587.199C587.676 158.376 588.133 158.2 588.47 157.887C588.808 157.574 588.998 157.149 589 156.705V142.336C588.999 141.891 588.808 141.465 588.471 141.151C588.134 140.837 587.677 140.66 587.199 140.658Z" fill="#E6E6E6"/>
<path d="M587.199 165.144H571.777C571.301 165.146 570.845 165.323 570.509 165.638C570.172 165.952 569.984 166.378 569.984 166.822V181.185C569.983 181.405 570.029 181.623 570.119 181.826C570.209 182.029 570.341 182.214 570.507 182.37C570.674 182.526 570.872 182.649 571.09 182.734C571.308 182.818 571.541 182.862 571.777 182.862H587.199C587.677 182.862 588.135 182.685 588.472 182.371C588.81 182.056 589 181.63 589 181.185V166.822C588.999 166.378 588.808 165.952 588.471 165.637C588.134 165.323 587.677 165.146 587.199 165.144Z" fill="#6C63FF"/>
<path d="M587.199 189.631H571.777C571.301 189.632 570.845 189.81 570.509 190.124C570.172 190.439 569.984 190.864 569.984 191.308V205.671C569.983 205.891 570.029 206.109 570.119 206.312C570.209 206.516 570.341 206.7 570.507 206.856C570.674 207.012 570.872 207.136 571.09 207.22C571.308 207.305 571.541 207.348 571.777 207.348H587.199C587.677 207.348 588.135 207.171 588.472 206.857C588.81 206.542 589 206.116 589 205.671V191.308C588.999 190.864 588.808 190.438 588.471 190.123C588.134 189.809 587.677 189.632 587.199 189.631Z" fill="#E6E6E6"/>
<path d="M587.199 214.117H571.777C571.541 214.117 571.308 214.161 571.09 214.245C570.872 214.33 570.674 214.453 570.507 214.609C570.341 214.765 570.209 214.95 570.119 215.153C570.029 215.357 569.983 215.574 569.984 215.794V230.157C569.983 230.377 570.029 230.595 570.119 230.798C570.209 231.002 570.341 231.187 570.507 231.342C570.674 231.498 570.872 231.622 571.09 231.706C571.308 231.791 571.541 231.834 571.777 231.835H587.199C587.677 231.834 588.135 231.658 588.472 231.343C588.81 231.029 589 230.602 589 230.157V215.794C589 215.35 588.81 214.923 588.472 214.608C588.135 214.294 587.677 214.117 587.199 214.117Z" fill="#E6E6E6"/>
<path d="M232.747 425.88H232.317L232.684 425.835L232.747 425.88Z" fill="#2F2E41"/>
<path d="M195.85 158.115C221.98 158.115 243.163 138.378 243.163 114.032C243.163 89.6857 221.98 69.9492 195.85 69.9492C169.719 69.9492 148.537 89.6857 148.537 114.032C148.537 138.378 169.719 158.115 195.85 158.115Z" fill="#FFB6B6"/>
<path d="M237.283 81.7112C237.283 81.7112 249.658 59.6698 222.433 57.666C222.433 57.666 199.224 38.0498 175.568 54.0799C175.568 54.0799 162.664 54.0799 155.608 67.6848C155.608 67.6848 145.459 64.0987 143.229 73.6961C143.229 73.6961 135.803 93.7338 143.229 111.768C150.655 129.802 153.122 131.805 153.122 131.805C153.122 131.805 140.919 93.9963 170.621 91.9925C200.323 89.9887 233.561 72.6943 236.036 94.7356C238.511 116.777 242.236 122.208 242.236 122.208C242.236 122.208 265.746 90.7282 237.283 81.7112Z" fill="#2F2E41"/>
<path d="M318.238 222.672L318.086 223.421L316.375 231.835L304.554 290.034L303.855 293.46L302.387 300.706L300.379 310.591L295.926 332.496L294.652 338.774L294.174 341.129L294.008 341.955L292.685 348.452L292.283 350.414L289.056 372.693L286.238 392.108L295.67 400.896L290.046 406.135L286.356 425.834L286.362 425.879H135.722C129.628 422.201 123.622 418.409 117.703 414.504L118.943 405.858C118.943 405.858 123.209 390.417 121.415 388.572C119.629 386.727 115.709 383.43 115.709 383.43L120.646 372.693L121.332 371.203L120.183 348.988L120.155 348.452L119.774 341.129L119.725 340.187L119.649 338.774L118.188 310.59L118.16 310.126L117.717 301.583L117.302 293.46L117.122 290.034L115.342 255.753L114.137 232.473L113.084 212.207L117.316 210.871L162.571 196.541L181.317 173.836L220.332 174.107L239.432 174.242L271.301 201.78L278.551 205.006L278.607 205.032L283.807 207.348L296.992 213.213L310.933 219.421L318.086 222.601L318.238 222.672Z" fill="#CACACA"/>
<path d="M186.359 359.744C183.5 360.776 180.432 361.212 177.373 361.02C174.314 360.828 171.337 360.013 168.652 358.634C165.968 357.254 163.64 355.342 161.834 353.034C160.028 350.725 158.787 348.076 158.199 345.272L84.4065 335.518L110.059 308.482L176.2 321.889C181.321 321.281 186.504 322.443 190.766 325.157C195.028 327.871 198.074 331.947 199.326 336.613C200.578 341.279 199.949 346.211 197.56 350.474C195.17 354.738 191.184 358.036 186.359 359.744V359.744Z" fill="#FFB6B6"/>
<path d="M153.457 310.591C152.09 308.976 150.155 307.863 147.993 307.448L117.717 301.583L114.608 300.983C112.801 300.632 111.094 299.929 109.599 298.92C108.103 297.912 106.853 296.621 105.931 295.131C104.974 293.567 104.395 291.828 104.234 290.034C104.09 288.403 104.299 286.761 104.85 285.207L115.342 255.753L122.149 236.642C122.974 234.337 123.461 231.938 123.597 229.512C123.976 222.797 121.746 216.179 117.315 210.871C113.42 206.206 108.018 202.832 101.906 201.247C95.7946 199.662 89.2979 199.951 83.3759 202.071C83.2028 202.129 83.0227 202.193 82.8496 202.258C78.6027 203.838 74.8083 206.316 71.7664 209.498C68.7245 212.679 66.5184 216.476 65.3224 220.588L57.9264 245.655L42.6706 297.331C41.1434 302.509 40.8349 307.933 41.7661 313.231C42.6974 318.53 44.8464 323.579 48.0661 328.032C51.2858 332.486 55.5002 336.238 60.4208 339.033C65.3414 341.828 70.852 343.599 76.5755 344.226L120.182 348.988L140.362 351.194C142.695 351.456 145.049 350.888 146.953 349.605C148.858 348.322 150.174 346.418 150.639 344.271C150.671 344.154 150.697 344.036 150.715 343.916L151.2 341.129L155.306 317.656L155.348 317.417C155.562 316.219 155.504 314.993 155.178 313.817C154.853 312.641 154.266 311.542 153.457 310.591Z" fill="#CACACA"/>
<path d="M233.361 360.497C236.348 361.143 239.45 361.171 242.45 360.579C245.45 359.987 248.273 358.79 250.723 357.071C253.172 355.352 255.187 353.154 256.625 350.631C258.064 348.108 258.891 345.322 259.049 342.469L330.628 323.117L301.14 299.721L237.689 321.686C232.527 321.756 227.572 323.588 223.763 326.834C219.954 330.081 217.556 334.516 217.023 339.3C216.489 344.084 217.858 348.885 220.869 352.791C223.881 356.698 228.325 359.44 233.361 360.497V360.497Z" fill="#FFB6B6"/>
<path d="M366.166 279.826L332.123 206.826C329.338 200.833 324.365 195.952 318.086 193.05C316.145 192.16 314.106 191.468 312.006 190.986C311.68 190.908 311.355 190.837 311.029 190.779C306.575 189.873 301.955 189.953 297.539 191.011C293.503 191.978 289.731 193.726 286.469 196.141C283.207 198.557 280.527 201.587 278.606 205.032C278.585 205.061 278.567 205.091 278.551 205.122C276.405 208.99 275.264 213.274 275.219 217.627C275.175 221.981 276.228 226.284 278.295 230.189L278.717 230.977L302.775 275.994C303.596 277.533 304.059 279.217 304.133 280.935C304.207 282.653 303.89 284.365 303.203 285.961C302.517 287.557 301.476 288.999 300.149 290.194C298.822 291.388 297.239 292.308 295.503 292.892L293.814 293.46L263.427 303.687C261.147 304.445 259.271 305.998 258.195 308.018C257.119 310.039 256.927 312.37 257.658 314.52L257.734 314.746L266.252 340.142C266.294 340.258 266.335 340.374 266.384 340.49C266.459 340.709 266.551 340.923 266.661 341.129C267.566 343.021 269.166 344.549 271.173 345.44C273.18 346.33 275.462 346.525 277.609 345.987L294.008 341.955L297.352 341.129L339.699 330.709C345.271 329.337 350.459 326.859 354.908 323.446C359.356 320.032 362.961 315.763 365.475 310.931C367.988 306.099 369.351 300.818 369.471 295.449C369.59 290.08 368.463 284.751 366.166 279.826L366.166 279.826Z" fill="#CACACA"/>
<path d="M31.092 341.129C40.9051 352.281 51.4882 362.825 62.774 372.693H375.764C378.78 372.698 381.671 373.816 383.802 375.803C385.934 377.791 387.132 380.485 387.135 383.294L387.586 457.192C406.84 448.949 424.872 438.425 441.234 425.879C445.777 422.401 450.179 418.773 454.44 414.994C457.23 412.529 459.954 410.004 462.611 407.419C482.53 388.085 498.66 365.649 510.269 341.129H31.092Z" fill="#3F3D56"/>
<path d="M462.611 407.419C459.959 410.006 457.235 412.531 454.44 414.994H387.814V407.419H462.611Z" fill="white"/>
<path d="M317.615 165.144C317.286 164.578 316.799 164.106 316.205 163.776C315.612 163.447 314.933 163.273 314.243 163.273H87.2124C86.1946 163.276 85.2192 163.654 84.5001 164.325C83.781 164.997 83.3768 165.906 83.376 166.854V293.46H318.086V166.854C318.09 166.256 317.927 165.667 317.615 165.144Z" fill="#3F3D56"/>
<path d="M83.1704 290.032V305.655C83.1704 306.303 83.3073 306.944 83.5733 307.543C83.8393 308.141 84.2292 308.685 84.7207 309.143C85.2123 309.601 85.7958 309.964 86.4381 310.212C87.0803 310.46 87.7686 310.588 88.4637 310.588H175.094V341.421H173.943C173.852 341.42 173.763 341.437 173.68 341.469C173.596 341.501 173.52 341.549 173.456 341.608C173.393 341.668 173.342 341.738 173.307 341.816C173.273 341.894 173.255 341.977 173.255 342.061V344.206C173.255 344.29 173.273 344.373 173.307 344.451C173.342 344.529 173.393 344.599 173.456 344.659C173.52 344.718 173.596 344.765 173.68 344.798C173.763 344.83 173.852 344.846 173.943 344.846H227.721C227.812 344.846 227.901 344.83 227.985 344.798C228.068 344.765 228.144 344.718 228.208 344.659C228.272 344.599 228.322 344.529 228.357 344.451C228.391 344.373 228.409 344.29 228.409 344.206V342.061C228.409 341.977 228.391 341.894 228.357 341.816C228.322 341.738 228.271 341.668 228.208 341.608C228.144 341.549 228.068 341.501 227.985 341.469C227.901 341.437 227.812 341.42 227.721 341.421H226.571V310.588H313.2C313.896 310.588 314.584 310.46 315.226 310.212C315.868 309.964 316.452 309.601 316.943 309.143C317.435 308.685 317.825 308.141 318.091 307.543C318.357 306.944 318.494 306.303 318.494 305.655V290.032H83.1704Z" fill="#3F3D56"/>
<path d="M197.989 245.191C209.962 245.191 219.668 236.148 219.668 224.992C219.668 213.836 209.962 204.792 197.989 204.792C186.015 204.792 176.309 213.836 176.309 224.992C176.309 236.148 186.015 245.191 197.989 245.191Z" fill="#6C63FF"/>
<path d="M253.226 111.623H249.764C249.764 87.2338 223.857 71.2517 197.722 71.2388C193.921 71.2284 190.128 71.5721 186.4 72.2647C182.203 73.0454 177.847 73.9809 173.568 75.2004C156.691 80.0202 141.041 89.3372 141.041 111.623C141.037 115.951 141.628 120.262 142.8 124.45L139.448 125.263C138.205 120.809 137.576 116.225 137.578 111.623C137.578 92.1504 146.158 78.7749 160.978 70.8C168.768 66.606 178.277 63.9026 189.17 62.5863C193.703 62.0244 198.285 61.8947 202.847 62.1992C232.901 64.2123 253.226 85.6853 253.226 111.623Z" fill="#6C63FF"/>
<path d="M258.995 113.41L257.63 104.016C257.294 101.644 256.067 99.4585 254.168 97.8477C252.949 96.7976 251.489 96.0195 249.899 95.5724C248.31 95.1253 246.632 95.0208 244.992 95.2668L242.825 95.5443C242.232 95.617 241.66 95.7987 241.143 96.079C240.626 96.3592 240.173 96.7323 239.812 97.1767C239.448 97.6195 239.182 98.1252 239.028 98.6645C238.875 99.2039 238.838 99.7661 238.919 100.319L242.07 121.96C242.2 122.842 242.624 123.663 243.283 124.308C243.941 124.953 244.801 125.389 245.74 125.554C246.018 125.606 246.301 125.631 246.585 125.631C246.789 125.631 246.992 125.618 247.194 125.592L249.618 125.289C251.096 125.106 252.518 124.644 253.797 123.931C255.076 123.217 256.185 122.268 257.056 121.14C257.243 120.895 257.423 120.643 257.589 120.385C258.887 118.274 259.382 115.817 258.995 113.41Z" fill="#6C63FF"/>
<path d="M241.426 95.9379C240.79 96.2257 240.237 96.6503 239.812 97.1767C239.448 97.6196 239.182 98.1252 239.028 98.6646C238.875 99.2039 238.838 99.7662 238.919 100.319L242.07 121.96C242.2 122.842 242.624 123.663 243.283 124.308C243.941 124.953 244.801 125.389 245.74 125.554L241.426 95.9379Z" fill="white"/>
<path d="M258.995 113.41L257.63 104.016C257.294 101.644 256.067 99.4585 254.168 97.8477L257.305 119.379C257.352 119.724 257.447 120.063 257.589 120.385C258.887 118.274 259.382 115.817 258.995 113.41Z" fill="#3F3D56"/>
<path d="M248.213 120.179C249.16 120.06 249.636 117.959 249.277 115.487C248.917 113.015 247.857 111.108 246.909 111.228C245.962 111.348 245.486 113.449 245.845 115.921C246.205 118.392 247.265 120.299 248.213 120.179Z" fill="#3F3D56"/>
<path d="M246.135 108.565C247.083 108.446 247.559 106.345 247.199 103.873C246.839 101.401 245.779 99.4945 244.832 99.6142C243.884 99.734 243.408 101.835 243.768 104.307C244.128 106.778 245.188 108.685 246.135 108.565Z" fill="#3F3D56"/>
<path d="M259.293 113.082C260.24 112.962 260.716 110.861 260.357 108.389C259.997 105.918 258.937 104.011 257.989 104.131C257.042 104.251 256.566 106.351 256.926 108.823C257.285 111.295 258.345 113.202 259.293 113.082Z" fill="#3F3D56"/>
<path d="M197.722 71.2387C193.921 71.2284 190.128 71.572 186.4 72.2646C182.203 73.0453 177.847 73.9809 173.568 75.2004C166.885 74.8971 161.968 73.2841 160.978 70.8C168.768 66.606 178.277 63.9025 189.17 62.5863C193.703 62.0244 198.285 61.8947 202.847 62.1992C203.329 62.4629 203.747 62.8189 204.072 63.2437C204.396 63.6685 204.621 64.1525 204.73 64.6639C205.056 66.9093 202.306 69.2966 197.722 71.2387Z" fill="#3F3D56"/>
<path d="M153.513 134.012L148.18 113.359C147.99 112.614 147.568 111.938 146.967 111.415C146.366 110.893 145.612 110.548 144.801 110.423C144.572 110.39 144.34 110.373 144.108 110.372C143.782 110.373 143.456 110.409 143.139 110.481L141.075 110.946C138.418 111.545 136.125 113.101 134.698 115.273C133.271 117.446 132.828 120.057 133.465 122.534L135.854 131.799C136.399 133.981 137.699 135.935 139.552 137.361C139.852 137.587 140.167 137.796 140.494 137.987C141.654 138.665 142.949 139.119 144.302 139.323C145.654 139.527 147.036 139.476 148.367 139.174L150.424 138.71C150.968 138.592 151.48 138.37 151.927 138.058C152.592 137.606 153.098 136.98 153.38 136.26C153.663 135.54 153.709 134.757 153.513 134.012Z" fill="#6C63FF"/>
<path d="M142.334 130.17C143.264 129.961 143.509 127.826 142.883 125.401C142.257 122.976 140.995 121.179 140.066 121.387C139.136 121.596 138.89 123.731 139.517 126.156C140.143 128.581 141.404 130.378 142.334 130.17Z" fill="#3F3D56"/>
<path d="M135.409 132.105C136.339 131.897 136.584 129.762 135.958 127.337C135.332 124.912 134.07 123.114 133.141 123.323C132.211 123.531 131.965 125.666 132.592 128.091C133.218 130.517 134.479 132.314 135.409 132.105Z" fill="#3F3D56"/>
<path d="M153.852 133.935L148.52 113.281C148.312 112.475 147.854 111.744 147.202 111.179C146.55 110.615 145.734 110.242 144.856 110.107L152.135 138.316C152.853 137.826 153.4 137.148 153.706 136.368C154.011 135.588 154.062 134.742 153.852 133.935Z" fill="white"/>
<path d="M134.67 118.443C134.522 117.869 134.246 117.33 133.859 116.862C133.11 118.671 132.972 120.65 133.465 122.534L135.854 131.799C136.399 133.981 137.699 135.935 139.552 137.361L134.67 118.443Z" fill="#3F3D56"/>
</g>
<defs>
<clipPath id="clip0_115_14">
<rect width="589" height="478" fill="white"/>
</clipPath>
</defs>
</svg>
