<svg width="449" height="250" viewBox="0 0 449 250" fill="none" xmlns="http://www.w3.org/2000/svg">
<path d="M436.842 223.938H420.34C419.968 223.937 419.6 224.076 419.262 224.345C418.924 224.615 418.624 225.009 418.384 225.499C417.775 225.306 417.149 225.365 416.556 225.671C415.963 225.977 415.42 226.521 414.973 227.259C414.525 227.997 414.186 228.908 413.982 229.917C413.778 230.925 413.715 232.003 413.799 233.061C413.883 234.12 414.111 235.129 414.465 236.005C414.819 236.882 415.288 237.601 415.834 238.104C416.38 238.607 416.987 238.879 417.606 238.899C418.225 238.918 418.837 238.683 419.393 238.215L420.762 245.893C420.924 246.802 421.251 247.599 421.695 248.164C422.138 248.73 422.675 249.035 423.227 249.035H433.956C434.507 249.035 435.044 248.73 435.487 248.164C435.931 247.598 436.258 246.802 436.42 245.893L439.307 229.699C439.425 229.033 439.452 228.328 439.384 227.642C439.316 226.955 439.156 226.305 438.916 225.745C438.676 225.185 438.364 224.729 438.004 224.416C437.643 224.102 437.246 223.938 436.842 223.938ZM417.687 236.969C416.946 236.969 416.235 236.461 415.711 235.556C415.186 234.65 414.892 233.423 414.892 232.143C414.892 230.863 415.186 229.635 415.711 228.73C416.235 227.825 416.946 227.317 417.687 227.317C417.739 227.317 417.786 227.338 417.837 227.343C417.725 228.119 417.739 228.934 417.876 229.699L419.056 236.325C418.64 236.742 418.168 236.964 417.687 236.969Z" fill="#F0F0F0"/>
<path d="M34.8108 203.668H18.3087C17.9365 203.667 17.5685 203.805 17.2306 204.075C16.8927 204.345 16.593 204.739 16.3525 205.229C15.7438 205.036 15.1173 205.095 14.5244 205.401C13.9315 205.707 13.389 206.251 12.9416 206.989C12.4941 207.727 12.1544 208.638 11.9504 209.646C11.7464 210.655 11.6838 211.733 11.7679 212.791C11.8519 213.849 12.0801 214.858 12.4339 215.735C12.7876 216.612 13.2567 217.331 13.8027 217.834C14.3487 218.337 14.9559 218.609 15.5747 218.628C16.1935 218.648 16.806 218.413 17.3621 217.944L19.29 245.893C19.4521 246.802 19.779 247.599 20.2226 248.164C20.6661 248.73 21.2031 249.035 21.7546 249.035H32.4836C33.035 249.035 33.5719 248.73 34.0154 248.164C34.459 247.598 34.7858 246.802 34.9479 245.893L37.2754 209.428C37.3941 208.763 37.4205 208.058 37.3527 207.371C37.2849 206.685 37.1247 206.035 36.885 205.475C36.6452 204.915 36.3327 204.459 35.9725 204.145C35.6122 203.831 35.2143 203.668 34.8108 203.668ZM15.6563 216.699C14.9148 216.699 14.2037 216.19 13.6794 215.285C13.1551 214.38 12.8605 213.153 12.8605 211.873C12.8605 210.593 13.1551 209.365 13.6794 208.46C14.2037 207.555 14.9148 207.046 15.6563 207.046C15.7073 207.046 15.7549 207.068 15.8054 207.072C15.6942 207.849 15.7077 208.664 15.8444 209.428L17.0252 216.055C16.6092 216.472 16.1373 216.694 15.6563 216.699Z" fill="#F0F0F0"/>
<path d="M229.764 180.502C229.764 178.975 229.501 177.482 229.01 176.212C228.518 174.942 227.82 173.952 227.002 173.368C226.185 172.783 225.286 172.63 224.418 172.928C223.55 173.226 222.753 173.962 222.128 175.042C221.502 176.122 221.076 177.497 220.903 178.995C220.731 180.493 220.819 182.046 221.158 183.457C221.496 184.868 222.07 186.074 222.805 186.923C223.541 187.771 224.406 188.224 225.291 188.224C225.346 188.224 225.4 188.213 225.455 188.21C226.562 194.416 227.153 200.862 227.211 207.355C227.253 210.592 227.146 213.83 226.89 217.037C226.696 219.313 226.332 221.924 225.023 222.987C224.047 223.78 224.898 226.278 225.87 225.488C227.346 224.289 228.064 221.601 228.386 218.975C228.753 215.588 228.922 212.147 228.891 208.702C228.909 201.541 228.303 194.416 227.094 187.566C227.888 186.962 228.563 185.973 229.037 184.719C229.511 183.465 229.764 182 229.764 180.502Z" fill="#E6E6E6"/>
<path d="M228.397 227.034C228.397 227.034 222.399 201.547 240.393 182.432L228.397 227.034Z" fill="#E6E6E6"/>
<path d="M228.076 226.57C228.076 226.57 226.246 208.405 212.084 208.56L228.076 226.57Z" fill="#E6E6E6"/>
<path d="M238.11 248.88H213.518C213.046 248.88 212.584 248.651 212.184 248.219C211.784 247.787 211.463 247.17 211.256 246.438L205.902 227.439C205.716 226.777 205.63 226.044 205.652 225.309C205.675 224.573 205.805 223.86 206.032 223.236C206.258 222.612 206.572 222.098 206.945 221.741C207.318 221.384 207.738 221.197 208.164 221.197H243.464C243.89 221.197 244.31 221.384 244.683 221.741C245.056 222.098 245.37 222.612 245.596 223.236C245.823 223.86 245.953 224.573 245.976 225.309C245.998 226.044 245.912 226.777 245.726 227.439L240.372 246.438C240.165 247.17 239.844 247.787 239.444 248.219C239.044 248.651 238.582 248.88 238.11 248.88Z" fill="#F0F0F0"/>
<path d="M448.441 250H0.559153C0.410857 250 0.268633 249.898 0.163772 249.717C0.0589102 249.536 0 249.291 0 249.035C0 248.779 0.0589102 248.533 0.163772 248.352C0.268633 248.171 0.410857 248.069 0.559153 248.069H448.441C448.589 248.069 448.731 248.171 448.836 248.352C448.941 248.533 449 248.779 449 249.035C449 249.291 448.941 249.536 448.836 249.717C448.731 249.898 448.589 250 448.441 250Z" fill="#3F3D56"/>
<path d="M93.4205 193.945L82.5534 123.013L81.2953 114.825L82.4751 112.934L102.729 95.6129L131.671 96.8571L148.661 111.915L148.753 123.013L149.592 223.005L152.982 247.548H90.8171L95.6437 208.459L93.4205 193.945Z" fill="#6C63FF"/>
<path d="M164.91 247.548H148.71L144.237 191.796L145.408 123.014L145.569 113.656L148.662 111.915C150.992 114.853 152.919 118.643 154.305 123.014C156.292 128.986 157.943 137.544 157.533 149.05C157.533 149.05 157.9 162.638 157.55 171.686C157.31 177.869 161.49 216.95 164.91 247.548Z" fill="#6C63FF"/>
<path d="M93.4773 193.236L93.4205 193.945L89.1223 247.548H70.4932C71.987 217.176 73.7429 179.204 73.507 173.119C73.1577 164.078 73.5245 150.483 73.5245 150.483C73.079 138.019 75.0578 129.031 77.2547 123.014C78.36 119.955 79.7216 117.196 81.2951 114.825C81.6441 114.296 82.0117 113.805 82.3958 113.355L85.4883 115.089L86.2964 123.014L93.4773 193.236Z" fill="#6C63FF"/>
<path d="M95.6246 49.0022C95.6246 55.8519 96.8012 62.5478 99.0057 68.2431C101.21 73.9384 104.343 78.3774 108.009 80.9987C111.675 83.6199 115.709 84.3058 119.601 82.9695C123.492 81.6332 127.067 78.3347 129.873 73.4913C132.679 68.6478 134.589 62.4768 135.363 55.7588C136.137 49.0407 135.74 42.0772 134.222 35.7489C132.703 29.4206 130.132 24.0117 126.833 20.2062C123.533 16.4007 119.655 14.3695 115.687 14.3695C110.379 14.3466 105.284 17.9644 101.521 24.4269C97.759 30.8894 95.6379 39.6674 95.6246 48.8296C95.6245 48.8872 95.6245 48.9447 95.6246 49.0022Z" fill="#FFB7B7"/>
<path d="M179.768 242.025C179.768 244.002 179.313 245.898 178.503 247.296C177.693 248.694 176.595 249.479 175.45 249.479H59.9534C58.8083 249.479 57.7101 248.693 56.9004 247.296C56.0906 245.898 55.6357 244.002 55.6357 242.025C55.6357 240.048 56.0906 238.153 56.9004 236.755C57.7101 235.357 58.8083 234.572 59.9534 234.572H61.2353C61.162 234.128 61.1238 233.669 61.1219 233.207V131.418C61.1219 129.701 61.517 128.054 62.2202 126.84C62.9234 125.626 63.8772 124.944 64.8717 124.944H170.532C171.526 124.944 172.48 125.626 173.183 126.84C173.887 128.054 174.282 129.701 174.282 131.417V233.207C174.282 233.669 174.244 234.129 174.168 234.572H175.45C176.017 234.572 176.578 234.765 177.102 235.139C177.626 235.514 178.102 236.063 178.503 236.755C178.904 237.447 179.222 238.269 179.439 239.173C179.656 240.077 179.768 241.046 179.768 242.025Z" fill="#3F3D56"/>
<path d="M119.939 183.08C118.619 183.08 117.328 182.404 116.231 181.138C115.133 179.872 114.278 178.073 113.772 175.968C113.267 173.862 113.135 171.546 113.393 169.311C113.65 167.076 114.286 165.023 115.219 163.412C116.153 161.8 117.342 160.703 118.636 160.258C119.931 159.814 121.273 160.042 122.493 160.914C123.712 161.786 124.755 163.263 125.488 165.157C126.221 167.052 126.613 169.28 126.613 171.558C126.611 174.613 125.907 177.542 124.656 179.702C123.405 181.862 121.708 183.077 119.939 183.08ZM119.939 161.968C118.84 161.968 117.766 162.53 116.852 163.584C115.938 164.638 115.226 166.136 114.806 167.888C114.385 169.641 114.275 171.569 114.489 173.43C114.704 175.29 115.233 176.999 116.01 178.34C116.787 179.682 117.777 180.595 118.855 180.965C119.933 181.335 121.05 181.145 122.065 180.419C123.08 179.693 123.948 178.464 124.558 176.887C125.169 175.31 125.495 173.455 125.495 171.558C125.493 169.015 124.907 166.578 123.865 164.78C122.824 162.982 121.412 161.97 119.939 161.968Z" fill="white"/>
<path d="M117.702 178.254C121.079 178.254 123.817 173.528 123.817 167.697C123.817 161.867 121.079 157.141 117.702 157.141C114.325 157.141 111.587 161.867 111.587 167.697C111.587 173.528 114.325 178.254 117.702 178.254Z" fill="white"/>
<path d="M305.298 78.8428V58.3977C305.298 46.1097 308.125 34.325 313.159 25.636C318.192 16.9471 325.019 12.0657 332.137 12.0657C339.255 12.0657 346.082 16.9471 351.115 25.636C356.149 34.325 358.976 46.1097 358.976 58.3977V78.8428C358.975 81.6115 358.337 84.2659 357.203 86.2236C356.068 88.1814 354.531 89.2826 352.927 89.2858H316.649L313.685 78.414V89.2858H311.347C309.743 89.2826 308.206 88.1814 307.071 86.2236C305.937 84.2659 305.299 81.6115 305.298 78.8428Z" fill="#2F2E41"/>
<path d="M351.711 144.282L352.867 165.906L353.392 175.732L354.231 191.376L354.337 193.393L355.018 206.099L355.035 206.238C355.465 208.615 356.328 210.689 357.495 212.152C358.663 213.615 360.072 214.389 361.515 214.36L392.649 213.431L401.436 213.168C401.605 213.607 401.77 214.001 401.936 214.352C402.707 215.97 403.667 217.29 404.754 218.225C405.84 219.161 407.028 219.692 408.241 219.784C409.46 219.88 410.677 219.527 411.81 218.746C412.944 217.966 413.968 216.777 414.813 215.259C414.983 214.959 415.148 214.645 415.3 214.316C416.452 211.871 417.125 208.86 417.226 205.714C417.326 202.568 416.848 199.448 415.859 196.8C415.201 195.027 414.331 193.517 413.307 192.372C412.283 191.227 411.129 190.474 409.922 190.162C408.723 189.845 407.498 189.966 406.328 190.519C405.158 191.072 404.068 192.044 403.13 193.371C402.832 193.795 402.553 194.257 402.296 194.753L392.649 192.326L368.354 186.222L367.316 162.025C367.312 161.915 367.308 161.805 367.303 161.688L366.465 142.162C366.325 138.913 365.472 135.879 364.079 133.679C362.687 131.479 360.861 130.28 358.974 130.327C358.352 130.338 357.735 130.487 357.136 130.773C356.465 131.086 355.823 131.564 355.23 132.191C354.046 133.434 353.088 135.227 352.465 137.365C351.843 139.503 351.582 141.9 351.711 144.282Z" fill="#9E616A"/>
<path d="M333.223 90.4072C342.942 90.4072 350.82 76.8065 350.82 60.0291C350.82 43.2517 342.942 29.651 333.223 29.651C323.504 29.651 315.625 43.2517 315.625 60.0291C315.625 76.8065 323.504 90.4072 333.223 90.4072Z" fill="#9E616A"/>
<path d="M356.686 110.659L359.886 108.818C359.886 108.818 366.285 113.421 366.285 121.706C366.285 129.991 367.351 163.131 367.351 163.131L352.954 165.892L356.686 110.659Z" fill="#6C63FF"/>
<path d="M288.617 248.514H301.305L305.645 185.725L307.216 163.048L307.432 159.919L308.593 143.135C308.655 141.027 308.383 138.93 307.805 137.07C307.227 135.211 306.366 133.659 305.314 132.583C304.263 131.506 303.061 130.947 301.839 130.964C300.616 130.981 299.42 131.575 298.378 132.681C298.116 132.959 297.866 133.27 297.629 133.609C296.901 134.643 296.308 135.931 295.889 137.389C295.47 138.846 295.234 140.441 295.198 142.067L294.055 160.526L288.617 248.514Z" fill="#9E616A"/>
<path d="M307.646 163.13L293.249 160.369C293.249 160.369 294.315 127.229 294.315 118.944C294.315 110.659 300.714 106.056 300.714 106.056L303.914 107.897L307.646 163.13Z" fill="#6C63FF"/>
<path d="M302.977 248.514H363.166C361.259 235.931 358.657 223.693 355.395 211.969C354.866 210.105 354.553 209.111 354.553 209.111C354.553 209.111 328.958 208.241 312.959 219.287C311.938 220.047 311.023 221.173 310.274 222.591C307.504 227.533 305.082 236.81 302.977 248.514Z" fill="#2F2E41"/>
<path d="M315.625 100.533C315.625 100.533 315.118 100.063 345.486 101.972L358.197 108.015L359.886 108.818C359.886 108.818 358.286 164.051 354.02 174.177C349.754 184.303 350.82 189.826 351.887 190.747C352.954 191.668 355.62 189.826 354.02 194.429C352.42 199.032 350.287 196.27 352.42 199.032C354.553 201.794 355.62 211.92 355.62 211.92L308.693 222.966C308.693 222.966 307.093 187.065 302.827 168.654C298.561 150.243 297.495 142.878 297.495 142.878L300.694 106.057L315.625 100.533Z" fill="#6C63FF"/>
<path d="M314.244 42.9537C314.244 35.0176 316.07 27.4067 319.321 21.7951C322.572 16.1834 326.981 13.0309 331.578 13.0309C336.175 13.0309 340.584 16.1834 343.835 21.7951C347.085 27.4067 348.912 35.0176 348.912 42.9537V56.4672H314.244V42.9537Z" fill="#2F2E41"/>
<path d="M390.568 240.918V243.587C390.568 245.149 390.209 246.648 389.569 247.753C388.928 248.858 388.06 249.479 387.155 249.479H273.634C272.729 249.479 271.861 248.858 271.22 247.753C270.58 246.648 270.221 245.149 270.221 243.587V240.918C270.221 239.356 270.58 237.857 271.22 236.752C271.861 235.647 272.729 235.027 273.634 235.026H275.649C275.578 234.596 275.541 234.151 275.539 233.703V133.683C275.54 132.372 275.842 131.116 276.378 130.189C276.915 129.263 277.643 128.742 278.402 128.741H382.387C383.146 128.742 383.874 129.263 384.411 130.189C384.947 131.116 385.249 132.372 385.25 133.683V233.703C385.25 234.151 385.213 234.597 385.14 235.026H387.155C388.06 235.027 388.928 235.647 389.569 236.752C390.209 237.857 390.568 239.356 390.568 240.918Z" fill="#3F3D56"/>
<path d="M332.631 185.251C331.348 185.251 330.094 184.594 329.027 183.364C327.96 182.133 327.128 180.384 326.637 178.338C326.146 176.291 326.018 174.039 326.268 171.867C326.518 169.694 327.136 167.698 328.044 166.132C328.951 164.566 330.107 163.499 331.366 163.067C332.624 162.635 333.929 162.857 335.114 163.704C336.3 164.552 337.313 165.987 338.026 167.829C338.739 169.671 339.119 171.836 339.119 174.052C339.117 177.021 338.433 179.868 337.217 181.967C336 184.067 334.351 185.248 332.631 185.251ZM332.631 164.782C331.569 164.782 330.531 165.326 329.648 166.344C328.765 167.363 328.077 168.811 327.67 170.504C327.264 172.198 327.158 174.062 327.365 175.86C327.572 177.658 328.083 179.31 328.834 180.606C329.585 181.902 330.542 182.785 331.584 183.143C332.625 183.5 333.705 183.317 334.686 182.615C335.667 181.914 336.506 180.726 337.096 179.201C337.686 177.677 338.001 175.885 338.001 174.052C337.999 171.594 337.433 169.238 336.426 167.5C335.42 165.762 334.055 164.785 332.631 164.782V164.782Z" fill="white"/>
<path d="M330.395 180.425C333.669 180.425 336.323 175.843 336.323 170.19C336.323 164.538 333.669 159.956 330.395 159.956C327.12 159.956 324.466 164.538 324.466 170.19C324.466 175.843 327.12 180.425 330.395 180.425Z" fill="white"/>
<path d="M138.412 20.2339C136.795 18.0781 135.48 15.3202 134.566 12.1657C134.239 10.9667 133.789 9.88037 133.237 8.95992L129.444 13.9961L131.762 7.02583C125.825 0.830286 114.231 4.12082 114.231 4.12082C102.169 -6.96614 97.7407 6.87353 96.1967 15.6503C95.5851 18.8266 94.5065 21.6745 93.0665 23.9157C90.0913 28.8129 94.7764 38.3385 94.7764 38.3385V39.0117L95.8948 52.1236C95.8948 52.1236 97.0131 43.4363 99.9642 37.3317C101.825 33.4828 104.853 31.1944 106.26 31.2418C124.412 31.8533 127.848 33.0941 127.848 33.0941C127.848 33.0941 130.921 35.9441 132.278 37.1413C136.664 41.0101 135.595 55.0193 135.595 55.0193L138.872 30.1554C139.629 24.1283 139.208 21.3629 138.412 20.2339Z" fill="#2F2E41"/>
</svg>
