<svg width="447" height="244" viewBox="0 0 447 244" fill="none" xmlns="http://www.w3.org/2000/svg">
<g clip-path="url(#clip0_115_93)">
<path d="M313.698 243.176C313.23 243.453 312.744 243.727 312.252 244H256.12C255.659 243.734 255.203 243.46 254.748 243.176C254.73 243.166 254.711 243.152 254.693 243.142C248.594 239.342 244.755 233.82 242.361 227.996C242.207 227.643 242.072 227.286 241.937 226.926C241.309 225.29 240.798 223.636 240.38 221.995C240.306 221.712 240.232 221.428 240.17 221.144C239.604 218.788 239.223 216.469 238.977 214.292C238.946 214.012 238.915 213.739 238.885 213.465C238.434 209.132 238.43 204.788 238.872 200.454C238.872 200.454 238.946 200.454 239.088 200.458C239.5 200.468 240.49 200.492 241.949 200.541C245.967 200.679 253.548 201.025 262.464 201.842C262.951 201.887 263.443 201.935 263.935 201.984C271.477 202.685 278.916 203.698 286.192 205.015C286.648 205.102 287.097 205.188 287.552 205.275L287.558 205.292L293.139 221.04L295.453 207.022C297.293 207.489 299.084 207.988 300.801 208.521C301.28 208.669 301.748 208.818 302.21 208.97C306.135 210.221 309.697 211.801 312.775 213.656C331.082 225.065 327.162 235.263 313.698 243.176Z" fill="#F2F2F2"/>
<path d="M290.241 223.207L291.214 223.813C302.462 230.893 309.175 237.464 311.243 243.441C311.276 243.527 311.298 243.614 311.331 243.701L310.612 243.777L309.918 243.846C307.807 237.33 299.949 230.594 290.141 224.418C289.828 224.217 289.511 224.014 289.183 223.815C284.99 221.221 280.482 218.733 275.923 216.406C275.573 216.224 275.213 216.042 274.853 215.86C268.808 212.806 262.726 210.044 257.303 207.715C256.921 207.549 256.533 207.386 256.151 207.227C246.942 203.306 239.797 200.708 238.204 200.138C238.013 200.066 237.904 200.029 237.879 200.02L238.256 199.681L238.257 199.676L238.639 199.334C238.664 199.344 239.029 199.469 239.689 199.711C242.168 200.61 248.831 203.083 257.119 206.599C257.492 206.758 257.879 206.921 258.261 207.087C262.666 208.974 267.484 211.136 272.349 213.504C273.573 214.097 274.766 214.69 275.929 215.281C276.294 215.461 276.654 215.643 277.004 215.824C281.933 218.339 286.345 220.8 290.241 223.207Z" fill="white"/>
<path d="M262.994 201.171C262.828 201.396 262.649 201.621 262.464 201.842C261.059 203.552 259.261 205.152 257.117 206.6C256.803 206.808 256.483 207.019 256.151 207.226C255.253 207.783 254.297 208.322 253.283 208.842C249.138 210.953 244.224 212.531 238.884 213.465C238.712 213.497 238.546 213.528 238.374 213.555C238.404 213.829 238.435 214.099 238.466 214.379C238.638 214.351 238.805 214.324 238.977 214.293C244.642 213.332 249.857 211.675 254.243 209.441C255.316 208.896 256.337 208.32 257.302 207.714C257.634 207.51 257.954 207.299 258.262 207.088C260.555 205.539 262.463 203.822 263.935 201.984C264.108 201.762 264.28 201.541 264.446 201.316C263.954 201.268 263.468 201.219 262.994 201.171Z" fill="white"/>
<path d="M286.444 204.403C286.371 204.607 286.284 204.811 286.192 205.015C284.524 208.905 280.971 212.459 275.928 215.282C275.577 215.479 275.22 215.673 274.851 215.86C274.747 215.919 274.63 215.981 274.519 216.036C269.932 218.365 264.421 220.044 258.446 220.932C252.471 221.821 246.205 221.893 240.17 221.144C240.029 221.13 239.881 221.109 239.74 221.092C239.814 221.376 239.881 221.663 239.961 221.947C240.103 221.964 240.238 221.981 240.38 221.995C246.568 222.715 252.97 222.605 259.068 221.674C265.166 220.743 270.789 219.016 275.479 216.635C275.627 216.559 275.781 216.486 275.922 216.407C276.291 216.213 276.648 216.019 277.005 215.825C282.166 212.921 285.815 209.279 287.558 205.292C287.651 205.084 287.737 204.877 287.817 204.669C287.361 204.579 286.906 204.489 286.444 204.403Z" fill="white"/>
<path d="M300.801 207.936C300.807 208.129 300.807 208.327 300.801 208.52C300.698 213.989 296.926 219.234 290.241 223.206C289.896 223.414 289.54 223.615 289.183 223.815C288.795 224.027 288.407 224.238 288.007 224.438C281.817 227.576 273.998 229.511 265.702 229.959C257.407 230.407 249.075 229.344 241.937 226.926C241.814 226.891 241.695 226.851 241.58 226.809C241.727 227.176 241.875 227.535 242.035 227.895C242.146 227.93 242.25 227.964 242.361 227.996C249.707 230.299 258.15 231.252 266.507 230.722C274.865 230.193 282.718 228.206 288.967 225.04C289.367 224.836 289.767 224.632 290.143 224.418C290.512 224.22 290.862 224.02 291.213 223.812C297.993 219.791 301.907 214.509 302.21 208.97C302.222 208.783 302.228 208.597 302.228 208.41C301.76 208.247 301.28 208.091 300.801 207.936Z" fill="white"/>
<path d="M176.399 57.2967H68.2305C67.3303 57.2961 66.4673 57.0948 65.8308 56.7368C65.1943 56.3789 64.8363 55.8936 64.8353 55.3874V9.19963C64.8363 8.69341 65.1943 8.20808 65.8308 7.85011C66.4673 7.49214 67.3303 7.29076 68.2305 7.29016H201.002C201.902 7.29076 202.765 7.49214 203.402 7.85011C204.038 8.20808 204.396 8.69341 204.397 9.19963V41.5519C204.389 45.7262 201.436 49.7282 196.188 52.6799C190.939 55.6316 183.822 57.292 176.399 57.2967Z" fill="white"/>
<path d="M176.399 57.4698H68.2305C67.2488 57.4691 66.3076 57.2495 65.6134 56.8591C64.9193 56.4688 64.5288 55.9395 64.5276 55.3874V9.19968C64.5287 8.64759 64.9192 8.11828 65.6134 7.72788C66.3075 7.33747 67.2487 7.11785 68.2305 7.11719H201.002C201.984 7.11782 202.925 7.33743 203.619 7.72785C204.314 8.11826 204.704 8.64758 204.705 9.19968V41.5519C204.696 45.7721 201.712 49.8181 196.405 52.8022C191.098 55.7864 183.904 57.465 176.399 57.4698ZM68.2305 7.80927C67.575 7.80972 66.9466 7.95636 66.4832 8.21702C66.0197 8.47768 65.759 8.83107 65.7583 9.19968V55.3874C65.759 55.756 66.0197 56.1094 66.4832 56.37C66.9467 56.6307 67.5751 56.7773 68.2305 56.7777H176.399C183.577 56.7731 190.459 55.1675 195.535 52.3131C200.611 49.4587 203.466 45.5886 203.474 41.5519V9.19968C203.474 8.83107 203.213 8.47768 202.749 8.21702C202.286 7.95636 201.658 7.80972 201.002 7.80927H68.2305Z" fill="#CCCCCC"/>
<path d="M174.757 22.8887H94.4761C93.7391 22.8887 93.0322 22.724 92.5111 22.431C91.9899 22.1379 91.6971 21.7404 91.6971 21.3259C91.6971 20.9115 91.9899 20.514 92.5111 20.2209C93.0322 19.9278 93.7391 19.7632 94.4761 19.7632H174.757C175.493 19.7638 176.199 19.9287 176.719 20.2217C177.239 20.5147 177.531 20.9119 177.531 21.3259C177.531 21.74 177.239 22.1371 176.719 22.4301C176.199 22.7231 175.493 22.8881 174.757 22.8887Z" fill="#CCCCCC"/>
<path d="M174.757 33.6542H94.4761C93.7391 33.6542 93.0322 33.4895 92.5111 33.1965C91.9899 32.9034 91.6971 32.5059 91.6971 32.0914C91.6971 31.677 91.9899 31.2795 92.5111 30.9864C93.0322 30.6933 93.7391 30.5287 94.4761 30.5287H174.757C175.494 30.5287 176.2 30.6933 176.722 30.9864C177.243 31.2795 177.535 31.677 177.535 32.0914C177.535 32.5059 177.243 32.9034 176.722 33.1965C176.2 33.4895 175.494 33.6542 174.757 33.6542Z" fill="#CCCCCC"/>
<path d="M174.757 44.7275H94.4761C93.7391 44.7275 93.0322 44.5629 92.5111 44.2698C91.9899 43.9767 91.6971 43.5792 91.6971 43.1648C91.6971 42.7503 91.9899 42.3528 92.5111 42.0598C93.0322 41.7667 93.7391 41.6021 94.4761 41.6021H174.757C175.494 41.6021 176.2 41.7667 176.722 42.0598C177.243 42.3528 177.535 42.7503 177.535 43.1648C177.535 43.5792 177.243 43.9767 176.722 44.2698C176.2 44.5629 175.494 44.7275 174.757 44.7275Z" fill="#CCCCCC"/>
<path d="M200.005 18.6644C209.17 18.6644 216.6 14.4862 216.6 9.33219C216.6 4.17816 209.17 0 200.005 0C190.84 0 183.41 4.17816 183.41 9.33219C183.41 14.4862 190.84 18.6644 200.005 18.6644Z" fill="#6C63FF"/>
<path d="M197.741 14.1892C197.455 14.1892 197.172 14.1517 196.916 14.0796C196.66 14.0075 196.437 13.9028 196.265 13.7739L191.737 10.3792C191.592 10.2702 191.486 10.1461 191.426 10.014C191.366 9.88196 191.353 9.74453 191.387 9.60958C191.421 9.47463 191.502 9.3448 191.626 9.22751C191.749 9.11021 191.913 9.00774 192.107 8.92595C192.301 8.84417 192.521 8.78466 192.756 8.75083C192.991 8.71701 193.235 8.70952 193.475 8.7288C193.715 8.74808 193.946 8.79376 194.155 8.86322C194.363 8.93267 194.546 9.02455 194.691 9.13361L197.653 11.3543L205.26 4.93737C205.532 4.70829 205.954 4.54926 206.434 4.49526C206.914 4.44127 207.413 4.49673 207.82 4.64945C208.228 4.80217 208.51 5.03964 208.606 5.30961C208.702 5.57959 208.604 5.85995 208.332 6.08903L199.278 13.7269C199.114 13.8651 198.893 13.9791 198.635 14.0595C198.377 14.1399 198.088 14.1842 197.793 14.1889C197.776 14.1891 197.759 14.1892 197.741 14.1892Z" fill="white"/>
<path d="M136.475 97.413H28.3058C20.8828 97.4082 13.7663 95.7479 8.5174 92.7962C3.26854 89.8445 0.316053 85.8425 0.307678 81.6681V49.3157C0.308735 48.8095 0.666817 48.3241 1.30337 47.9662C1.93992 47.6082 2.80297 47.4068 3.70319 47.4062H136.475C137.375 47.4068 138.238 47.6082 138.874 47.9662C139.511 48.3241 139.869 48.8095 139.87 49.3157V95.5035C139.869 96.0097 139.511 96.4951 138.874 96.853C138.238 97.211 137.375 97.4124 136.475 97.413Z" fill="white"/>
<path d="M136.475 97.5859H28.3058C20.8013 97.5811 13.6065 95.9025 8.30001 92.9184C2.99349 89.9342 0.00853247 85.8882 0 81.668V49.3156C0.00111237 48.7635 0.391627 48.2342 1.08587 47.8438C1.78011 47.4534 2.72138 47.2338 3.70318 47.2332H136.475C137.456 47.2338 138.398 47.4534 139.092 47.8438C139.786 48.2342 140.177 48.7635 140.178 49.3156V95.5034C140.177 96.0555 139.786 96.5848 139.092 96.9752C138.398 97.3657 137.456 97.5853 136.475 97.5859ZM3.70318 47.9252C3.04768 47.9257 2.41925 48.0723 1.95574 48.333C1.49223 48.5936 1.23148 48.947 1.23069 49.3156V81.668C1.2388 85.7048 4.09395 89.5748 9.16977 92.4292C14.2456 95.2836 21.1275 96.8892 28.3058 96.8938H136.475C137.13 96.8934 137.758 96.7468 138.222 96.4861C138.686 96.2254 138.946 95.872 138.947 95.5034V49.3156C138.946 48.947 138.685 48.5936 138.222 48.333C137.758 48.0723 137.13 47.9257 136.475 47.9252H3.70318Z" fill="#CCCCCC"/>
<path d="M110.229 63.0046H29.9486C29.2116 63.0046 28.5047 62.84 27.9836 62.5469C27.4624 62.2538 27.1696 61.8564 27.1696 61.4419C27.1696 61.0274 27.4624 60.6299 27.9836 60.3369C28.5047 60.0438 29.2116 59.8792 29.9486 59.8792H110.229C110.966 59.8792 111.673 60.0438 112.194 60.3369C112.715 60.6299 113.008 61.0274 113.008 61.4419C113.008 61.8564 112.715 62.2538 112.194 62.5469C111.673 62.84 110.966 63.0046 110.229 63.0046Z" fill="#CCCCCC"/>
<path d="M110.229 73.7702H29.9486C29.2116 73.7702 28.5047 73.6056 27.9836 73.3125C27.4624 73.0195 27.1696 72.622 27.1696 72.2075C27.1696 71.7931 27.4624 71.3956 27.9836 71.1025C28.5047 70.8094 29.2116 70.6448 29.9486 70.6448H110.229C110.966 70.6448 111.673 70.8094 112.194 71.1025C112.715 71.3956 113.008 71.7931 113.008 72.2075C113.008 72.622 112.715 73.0195 112.194 73.3125C111.673 73.6056 110.966 73.7702 110.229 73.7702Z" fill="#CCCCCC"/>
<path d="M110.229 84.8435H29.9486C29.2116 84.8435 28.5047 84.6789 27.9836 84.3858C27.4624 84.0927 27.1696 83.6952 27.1696 83.2808C27.1696 82.8663 27.4624 82.4688 27.9836 82.1757C28.5047 81.8827 29.2116 81.718 29.9486 81.718H110.229C110.966 81.718 111.673 81.8827 112.194 82.1757C112.715 82.4688 113.008 82.8663 113.008 83.2808C113.008 83.6952 112.715 84.0927 112.194 84.3858C111.673 84.6789 110.966 84.8435 110.229 84.8435Z" fill="#CCCCCC"/>
<path d="M136.625 59.1511C145.79 59.1511 153.22 54.9729 153.22 49.8189C153.22 44.6649 145.79 40.4867 136.625 40.4867C127.46 40.4867 120.03 44.6649 120.03 49.8189C120.03 54.9729 127.46 59.1511 136.625 59.1511Z" fill="#6C63FF"/>
<path d="M134.361 54.6759C134.074 54.6759 133.792 54.6384 133.535 54.5663C133.279 54.4942 133.056 54.3895 132.884 54.2606L128.357 50.8659C128.212 50.7569 128.106 50.6328 128.046 50.5007C127.985 50.3686 127.972 50.2312 128.006 50.0963C128.041 49.9613 128.122 49.8315 128.245 49.7142C128.369 49.5969 128.532 49.4944 128.726 49.4126C128.92 49.3309 129.141 49.2714 129.376 49.2375C129.611 49.2037 129.855 49.1962 130.095 49.2155C130.335 49.2348 130.566 49.2805 130.774 49.3499C130.983 49.4194 131.165 49.5112 131.311 49.6203L134.272 51.841L141.88 45.4241C142.151 45.195 142.574 45.0359 143.054 44.982C143.534 44.928 144.032 44.9834 144.44 45.1361C144.847 45.2889 145.13 45.5263 145.226 45.7963C145.322 46.0663 145.223 46.3466 144.952 46.5757L135.897 54.2136C135.733 54.3518 135.513 54.4658 135.255 54.5462C134.996 54.6265 134.707 54.6709 134.412 54.6756C134.395 54.6758 134.378 54.6759 134.361 54.6759Z" fill="white"/>
<path d="M271.25 140.465H119.897C112.474 140.46 105.358 138.8 100.109 135.848C94.8602 132.896 91.9077 128.894 91.8993 124.72V77.1348C91.9007 76.4822 92.3622 75.8566 93.1827 75.3952C94.0033 74.9338 95.1157 74.6742 96.2761 74.6735H271.25C272.41 74.6742 273.523 74.9338 274.343 75.3952C275.164 75.8566 275.625 76.4822 275.626 77.1348V138.003C275.625 138.656 275.164 139.282 274.343 139.743C273.523 140.204 272.41 140.464 271.25 140.465Z" fill="white"/>
<path d="M271.25 140.638H119.897C112.393 140.633 105.198 138.954 99.8917 135.97C94.5851 132.986 91.6002 128.94 91.5916 124.72V77.1347C91.593 76.4363 92.087 75.7667 92.9652 75.2728C93.8434 74.7789 95.0342 74.5012 96.2761 74.5004H271.25C272.492 74.5012 273.682 74.779 274.561 75.2729C275.439 75.7667 275.933 76.4363 275.934 77.1347V138.003C275.933 138.702 275.439 139.371 274.561 139.865C273.683 140.359 272.492 140.637 271.25 140.638ZM96.2761 75.1924C95.3605 75.1931 94.4826 75.3979 93.8351 75.762C93.1876 76.1261 92.8234 76.6198 92.8223 77.1347V124.72C92.8304 128.757 95.6856 132.627 100.761 135.481C105.837 138.336 112.719 139.941 119.897 139.946H271.25C272.166 139.945 273.043 139.74 273.691 139.376C274.338 139.012 274.702 138.518 274.703 138.003V77.1347C274.702 76.6198 274.338 76.1261 273.691 75.762C273.043 75.3979 272.166 75.1931 271.25 75.1924H96.2761Z" fill="#CCCCCC"/>
<path d="M236.662 95.1749H130.864C130.383 95.1752 129.906 95.1222 129.461 95.0189C129.016 94.9155 128.612 94.7639 128.271 94.5726C127.931 94.3813 127.66 94.1542 127.476 93.9041C127.292 93.6541 127.197 93.3861 127.197 93.1154C127.197 92.8447 127.292 92.5767 127.476 92.3266C127.66 92.0766 127.931 91.8495 128.271 91.6582C128.612 91.4669 129.016 91.3153 129.461 91.2119C129.906 91.1086 130.383 91.0556 130.864 91.0559H236.662C237.143 91.0556 237.62 91.1086 238.065 91.2119C238.51 91.3153 238.914 91.4669 239.255 91.6582C239.595 91.8495 239.865 92.0766 240.05 92.3266C240.234 92.5767 240.329 92.8447 240.329 93.1154C240.329 93.3861 240.234 93.6541 240.05 93.9041C239.865 94.1542 239.595 94.3813 239.255 94.5726C238.914 94.7639 238.51 94.9155 238.065 95.0189C237.62 95.1222 237.143 95.1752 236.662 95.1749Z" fill="#CCCCCC"/>
<path d="M236.662 109.362H130.864C130.383 109.363 129.906 109.31 129.461 109.206C129.016 109.103 128.612 108.951 128.271 108.76C127.931 108.569 127.66 108.342 127.476 108.092C127.292 107.841 127.197 107.573 127.197 107.303C127.197 107.032 127.292 106.764 127.476 106.514C127.66 106.264 127.931 106.037 128.271 105.846C128.612 105.654 129.016 105.503 129.461 105.399C129.906 105.296 130.383 105.243 130.864 105.243H236.662C237.633 105.243 238.565 105.46 239.252 105.846C239.938 106.233 240.324 106.757 240.324 107.303C240.324 107.849 239.938 108.373 239.252 108.759C238.565 109.145 237.633 109.362 236.662 109.362Z" fill="#CCCCCC"/>
<path d="M236.662 123.955H130.864C129.893 123.955 128.961 123.738 128.274 123.352C127.588 122.966 127.202 122.442 127.202 121.896C127.202 121.35 127.588 120.826 128.274 120.44C128.961 120.053 129.893 119.836 130.864 119.836H236.662C237.143 119.836 237.62 119.889 238.065 119.992C238.51 120.096 238.914 120.247 239.255 120.439C239.595 120.63 239.865 120.857 240.05 121.107C240.234 121.357 240.329 121.625 240.329 121.896C240.329 122.166 240.234 122.434 240.05 122.685C239.865 122.935 239.595 123.162 239.255 123.353C238.914 123.544 238.51 123.696 238.065 123.799C237.62 123.903 237.143 123.956 236.662 123.955Z" fill="#CCCCCC"/>
<path d="M271.8 90.212C283.401 90.212 292.807 84.923 292.807 78.3986C292.807 71.8742 283.401 66.5852 271.8 66.5852C260.198 66.5852 250.792 71.8742 250.792 78.3986C250.792 84.923 260.198 90.212 271.8 90.212Z" fill="#6C63FF"/>
<path d="M268.934 84.547C268.571 84.547 268.213 84.4995 267.889 84.4082C267.564 84.317 267.282 84.1845 267.065 84.0212L261.334 79.724C261.149 79.5859 261.015 79.4288 260.939 79.2617C260.863 79.0945 260.846 78.9205 260.89 78.7497C260.933 78.5789 261.036 78.4145 261.192 78.2661C261.349 78.1176 261.555 77.9879 261.801 77.8843C262.046 77.7808 262.326 77.7055 262.623 77.6626C262.92 77.6198 263.23 77.6103 263.533 77.6348C263.837 77.6592 264.129 77.717 264.394 77.8049C264.658 77.8928 264.888 78.0091 265.072 78.1472L268.822 80.9583L278.452 72.8352C278.796 72.5457 279.33 72.3449 279.938 72.2768C280.545 72.2087 281.175 72.279 281.691 72.4722C282.206 72.6653 282.564 72.9656 282.686 73.307C282.807 73.6485 282.683 74.0031 282.34 74.2931L270.878 83.9617C270.671 84.1366 270.392 84.281 270.065 84.3827C269.738 84.4845 269.372 84.5406 268.999 84.5465C268.977 84.5467 268.955 84.547 268.934 84.547Z" fill="white"/>
<path d="M326.222 234.569L317.675 236.176L302.583 218.403L315.197 216.03L326.222 234.569Z" fill="#FFB6B6"/>
<path d="M331.172 238.818L303.614 242.962L303.497 242.766C302.539 241.155 302.754 240.469 304.103 238.948C304.762 238.2 305.679 237.532 306.801 236.984C307.922 236.436 309.226 236.018 310.636 235.755L310.637 235.755L314.393 232.661L325.063 233.042L327.468 232.589L331.172 238.818Z" fill="#2F2E41"/>
<path d="M347.338 239.088H338.326L334.038 219.54L347.34 219.54L347.338 239.088Z" fill="#FFB6B6"/>
<path d="M349.636 242.963L320.577 242.962V242.755C320.578 241.056 321.754 240.497 323.891 239.296C324.939 238.703 326.185 238.234 327.558 237.914C328.93 237.594 330.402 237.431 331.888 237.433H331.889L337.197 235.168L347.1 237.433L349.637 237.433L349.636 242.963Z" fill="#2F2E41"/>
<path d="M278.75 82.4669C278.936 82.9979 279.326 83.4995 279.894 83.9364C280.462 84.3734 281.193 84.735 282.036 84.9959C282.879 85.2568 283.813 85.4105 284.773 85.4463C285.733 85.4821 286.696 85.3991 287.593 85.2031L297.997 91.3114L306.14 88.6613L291.232 80.1512C290.546 79.3258 289.346 78.6703 287.859 78.3091C286.372 77.9479 284.701 77.9061 283.162 78.1915C281.624 78.477 280.325 79.0698 279.512 79.8578C278.699 80.6458 278.428 81.5741 278.75 82.4669Z" fill="#FFB6B6"/>
<path d="M346.082 113.18L350.773 110.451L323.649 96.3248L296.351 82.6174L288.79 88.6254L317.397 103.641L346.082 113.18Z" fill="#E4E4E4"/>
<path d="M329.417 205.885C329.417 202.455 329.538 200.009 329.635 198.044C329.918 192.291 329.995 190.745 326.08 180.839L325.075 178.295L319.146 188.297C317.253 191.487 316.285 194.828 316.28 198.192L325.422 229.035H306.738L293.055 195.691L293.049 185.491C291.843 184.79 291.169 183.852 291.169 182.876C291.169 181.901 291.843 180.963 293.049 180.262L297.595 164.981L302.196 144.387H352.597C352.597 144.387 361.492 154.755 352.652 165.039L352.651 205.898L348.084 234.148H333.985L329.417 205.885Z" fill="#2F2E41"/>
<path d="M349.516 146.88L302.372 144.67L302.127 144.659L305.89 106.576C306.111 104.182 307.605 101.88 310.178 99.968C312.752 98.0564 316.287 96.6231 320.325 95.8538V93.1887C320.326 92.529 320.793 91.8966 321.622 91.4302C322.452 90.9638 323.576 90.7014 324.749 90.7007H331.637C332.46 90.6991 333.266 90.8272 333.966 91.0703C334.665 91.3134 335.229 91.6618 335.595 92.076L338.963 95.8643L351.7 101.594C357.99 104.425 352.927 132.799 352.655 134.296L355.735 142.958C355.905 143.434 355.884 143.926 355.675 144.397C355.467 144.869 355.075 145.309 354.528 145.685C353.981 146.061 353.292 146.364 352.512 146.573C351.732 146.782 350.879 146.89 350.015 146.892C349.849 146.891 349.683 146.887 349.516 146.88Z" fill="#E4E4E4"/>
<path d="M299.591 156.935C300.336 156.593 300.939 156.163 301.357 155.675C301.775 155.188 301.998 154.655 302.009 154.114C302.021 153.573 301.822 153.037 301.426 152.544C301.029 152.051 300.446 151.612 299.716 151.26L304.393 143.221L296.399 140.431L290.077 151.836C289.106 152.565 288.643 153.469 288.778 154.377C288.912 155.285 289.634 156.133 290.807 156.762C291.979 157.39 293.521 157.755 295.14 157.787C296.759 157.819 298.343 157.516 299.591 156.935Z" fill="#FFB6B6"/>
<path d="M316.032 102.285L309.542 101.069L300.167 124.588L291.533 147.978L304.519 149.053L314.589 124.183L316.032 102.285Z" fill="#E4E4E4"/>
<path d="M323.119 88.2665C331.67 88.2665 338.602 84.3682 338.602 79.5594C338.602 74.7506 331.67 70.8523 323.119 70.8523C314.568 70.8523 307.636 74.7506 307.636 79.5594C307.636 84.3682 314.568 88.2665 323.119 88.2665Z" fill="#FFB6B6"/>
<path d="M302.286 75.2953C302.429 74.4701 302.849 73.6677 303.525 72.9309C304.249 73.816 306.507 73.9696 308.052 73.5291C309.598 73.0885 310.633 72.2518 311.737 71.5012C314.651 69.5204 318.659 67.9136 323.2 67.621C327.742 67.3283 332.748 68.6176 334.464 71.0003C335.234 70.399 336.877 70.3322 338.04 70.6816C339.162 71.0797 340.038 71.6633 340.548 72.3525C341.691 73.6714 342.337 75.1088 342.445 76.5747C342.553 78.0406 342.122 79.5032 341.177 80.8708C339.265 83.5924 334.542 87.2591 329.67 88.2862C326.711 88.9098 323.724 88.1117 320.577 88.2862C320.742 86.3554 321.408 83.973 321.573 82.0422C321.663 80.9847 321.676 79.8017 320.392 79.0277C319.998 78.8173 319.526 78.6583 319.011 78.5617C318.496 78.4652 317.949 78.4335 317.409 78.4689C316.87 78.5043 316.351 78.606 315.889 78.7667C315.427 78.9274 315.033 79.1433 314.736 79.399C314.577 78.7986 314.216 78.2207 313.674 77.6961C313.395 77.4359 312.993 77.2247 312.512 77.0863C312.032 76.9478 311.492 76.8877 310.954 76.9126C309.64 77.0337 308.829 77.792 307.623 78.1095C306.939 78.2639 306.186 78.2969 305.468 78.2041C304.749 78.1114 304.097 77.8974 303.601 77.5907C303.118 77.2776 302.753 76.9129 302.527 76.5184C302.301 76.124 302.219 75.708 302.286 75.2953Z" fill="#2F2E41"/>
<path opacity="0.1" d="M325.123 124.077L306.939 144.529H320.578L325.123 124.077Z" fill="black"/>
<path d="M447 243.588C447 243.642 446.982 243.696 446.945 243.746C446.908 243.796 446.854 243.841 446.786 243.88C446.718 243.918 446.637 243.948 446.548 243.969C446.459 243.99 446.364 244 446.268 244H99.0352C98.841 244 98.6547 243.957 98.5174 243.879C98.3801 243.802 98.3029 243.697 98.3029 243.588C98.3029 243.479 98.3801 243.374 98.5174 243.297C98.6547 243.22 98.841 243.176 99.0352 243.176H446.268C446.364 243.176 446.459 243.187 446.548 243.207C446.637 243.228 446.718 243.258 446.786 243.297C446.854 243.335 446.908 243.38 446.945 243.43C446.982 243.48 447 243.534 447 243.588Z" fill="#CACACA"/>
</g>
<defs>
<clipPath id="clip0_115_93">
<rect width="447" height="244" fill="white"/>
</clipPath>
</defs>
</svg>
